<mxfile host="Electron" modified="2023-12-20T14:25:01.797Z" agent="Mozilla/5.0 (Windows NT 10.0; Win64; x64) AppleWebKit/537.36 (KHTML, like Gecko) draw.io/22.1.2 Chrome/114.0.5735.289 Electron/25.9.4 Safari/537.36" etag="11t0DfGDkbNudysRbjGg" version="22.1.2" type="device">
  <diagram name="Page-1" id="NpkLyHE9u5AMinzH0kkC">
    <mxGraphModel dx="1912" dy="1224" grid="1" gridSize="10" guides="1" tooltips="1" connect="1" arrows="1" fold="1" page="1" pageScale="1" pageWidth="1169" pageHeight="1654" math="0" shadow="0">
      <root>
        <mxCell id="0" />
        <mxCell id="1" parent="0" />
        <mxCell id="Z5CCrtA--1OO6FsdELsT-1" value="Application boulangerie" style="swimlane;whiteSpace=wrap;html=1;startSize=23;" vertex="1" parent="1">
          <mxGeometry x="110" y="50" width="370" height="1170" as="geometry" />
        </mxCell>
        <mxCell id="Z5CCrtA--1OO6FsdELsT-8" value="Ajouter &lt;font color=&quot;#00cc00&quot;&gt;nouveau&lt;/font&gt;&lt;br&gt;pain" style="ellipse;whiteSpace=wrap;html=1;" vertex="1" parent="Z5CCrtA--1OO6FsdELsT-1">
          <mxGeometry x="20" y="40" width="120" height="80" as="geometry" />
        </mxCell>
        <mxCell id="Z5CCrtA--1OO6FsdELsT-9" value="Supprimer &lt;font color=&quot;#00cc00&quot;&gt;des&lt;/font&gt;&lt;br&gt;pain&lt;font color=&quot;#00cc00&quot;&gt;s&lt;/font&gt;" style="ellipse;whiteSpace=wrap;html=1;" vertex="1" parent="Z5CCrtA--1OO6FsdELsT-1">
          <mxGeometry x="145" y="80" width="120" height="80" as="geometry" />
        </mxCell>
        <mxCell id="Z5CCrtA--1OO6FsdELsT-10" value="Modifier prix&lt;br&gt;&lt;font color=&quot;#00cc00&quot;&gt;pain&lt;/font&gt;" style="ellipse;whiteSpace=wrap;html=1;" vertex="1" parent="Z5CCrtA--1OO6FsdELsT-1">
          <mxGeometry x="230" y="150" width="120" height="80" as="geometry" />
        </mxCell>
        <mxCell id="Z5CCrtA--1OO6FsdELsT-14" value="Lister commandes" style="ellipse;whiteSpace=wrap;html=1;" vertex="1" parent="Z5CCrtA--1OO6FsdELsT-1">
          <mxGeometry x="90" y="350" width="120" height="80" as="geometry" />
        </mxCell>
        <mxCell id="Z5CCrtA--1OO6FsdELsT-15" value="Lister pains à&lt;br&gt;préparer" style="ellipse;whiteSpace=wrap;html=1;" vertex="1" parent="Z5CCrtA--1OO6FsdELsT-1">
          <mxGeometry x="20" y="430" width="120" height="80" as="geometry" />
        </mxCell>
        <mxCell id="Z5CCrtA--1OO6FsdELsT-16" value="Supprimer pain&lt;br&gt;au panier" style="ellipse;whiteSpace=wrap;html=1;" vertex="1" parent="Z5CCrtA--1OO6FsdELsT-1">
          <mxGeometry x="110" y="610" width="120" height="80" as="geometry" />
        </mxCell>
        <mxCell id="Z5CCrtA--1OO6FsdELsT-29" value="Ajouter pain&lt;br&gt;au panier" style="ellipse;whiteSpace=wrap;html=1;" vertex="1" parent="Z5CCrtA--1OO6FsdELsT-1">
          <mxGeometry x="200" y="680" width="120" height="80" as="geometry" />
        </mxCell>
        <mxCell id="Z5CCrtA--1OO6FsdELsT-30" value="Passer&lt;br&gt;commande" style="ellipse;whiteSpace=wrap;html=1;" vertex="1" parent="Z5CCrtA--1OO6FsdELsT-1">
          <mxGeometry x="145" y="760" width="120" height="80" as="geometry" />
        </mxCell>
        <mxCell id="Z5CCrtA--1OO6FsdELsT-31" value="Valider panier" style="ellipse;whiteSpace=wrap;html=1;fillColor=#f8cecc;strokeColor=#b85450;fontColor=#ff0000;" vertex="1" parent="Z5CCrtA--1OO6FsdELsT-1">
          <mxGeometry x="20" y="545" width="120" height="80" as="geometry" />
        </mxCell>
        <mxCell id="Z5CCrtA--1OO6FsdELsT-32" value="Préciser&lt;br&gt;tranche horaire" style="ellipse;whiteSpace=wrap;html=1;" vertex="1" parent="Z5CCrtA--1OO6FsdELsT-1">
          <mxGeometry x="20" y="830" width="120" height="80" as="geometry" />
        </mxCell>
        <mxCell id="Z5CCrtA--1OO6FsdELsT-41" value="" style="endArrow=open;html=1;rounded=0;exitX=0;exitY=0.5;exitDx=0;exitDy=0;entryX=1;entryY=0;entryDx=0;entryDy=0;endFill=0;dashed=1;dashPattern=8 8;strokeColor=#00CC00;" edge="1" parent="Z5CCrtA--1OO6FsdELsT-1" source="Z5CCrtA--1OO6FsdELsT-30" target="Z5CCrtA--1OO6FsdELsT-32">
          <mxGeometry width="50" height="50" relative="1" as="geometry">
            <mxPoint x="-130" y="900" as="sourcePoint" />
            <mxPoint x="-80" y="850" as="targetPoint" />
          </mxGeometry>
        </mxCell>
        <mxCell id="Z5CCrtA--1OO6FsdELsT-43" value="&lt;font color=&quot;#00cc00&quot;&gt;&amp;lt;&amp;lt;include&amp;gt;&amp;gt;&lt;/font&gt;" style="text;html=1;align=center;verticalAlign=middle;resizable=0;points=[];autosize=1;strokeColor=none;fillColor=none;" vertex="1" parent="Z5CCrtA--1OO6FsdELsT-1">
          <mxGeometry x="60" y="790" width="90" height="30" as="geometry" />
        </mxCell>
        <mxCell id="Z5CCrtA--1OO6FsdELsT-44" value="Payer&lt;br&gt;commande" style="ellipse;whiteSpace=wrap;html=1;" vertex="1" parent="Z5CCrtA--1OO6FsdELsT-1">
          <mxGeometry x="240" y="860" width="120" height="80" as="geometry" />
        </mxCell>
        <mxCell id="Z5CCrtA--1OO6FsdELsT-45" value="" style="endArrow=open;html=1;rounded=0;exitX=1;exitY=1;exitDx=0;exitDy=0;entryX=0.5;entryY=0;entryDx=0;entryDy=0;endFill=0;dashed=1;dashPattern=8 8;strokeColor=#000000;" edge="1" parent="Z5CCrtA--1OO6FsdELsT-1" source="Z5CCrtA--1OO6FsdELsT-30" target="Z5CCrtA--1OO6FsdELsT-44">
          <mxGeometry width="50" height="50" relative="1" as="geometry">
            <mxPoint x="155" y="810" as="sourcePoint" />
            <mxPoint x="132" y="852" as="targetPoint" />
          </mxGeometry>
        </mxCell>
        <mxCell id="Z5CCrtA--1OO6FsdELsT-46" value="&amp;lt;&amp;lt;include&amp;gt;&amp;gt;" style="text;html=1;align=center;verticalAlign=middle;resizable=0;points=[];autosize=1;strokeColor=none;fillColor=none;" vertex="1" parent="Z5CCrtA--1OO6FsdELsT-1">
          <mxGeometry x="270" y="810" width="90" height="30" as="geometry" />
        </mxCell>
        <mxCell id="Z5CCrtA--1OO6FsdELsT-49" value="Se connecter" style="ellipse;whiteSpace=wrap;html=1;" vertex="1" parent="Z5CCrtA--1OO6FsdELsT-1">
          <mxGeometry x="20" y="1078" width="120" height="80" as="geometry" />
        </mxCell>
        <mxCell id="Z5CCrtA--1OO6FsdELsT-50" value="S&#39;inscrire" style="ellipse;whiteSpace=wrap;html=1;" vertex="1" parent="Z5CCrtA--1OO6FsdELsT-1">
          <mxGeometry x="130" y="1000" width="120" height="80" as="geometry" />
        </mxCell>
        <mxCell id="Z5CCrtA--1OO6FsdELsT-51" value="Consulter carte&lt;br&gt;des pains" style="ellipse;whiteSpace=wrap;html=1;fillColor=#d5e8d4;strokeColor=#82b366;fontColor=#00CC00;" vertex="1" parent="Z5CCrtA--1OO6FsdELsT-1">
          <mxGeometry x="20" y="920" width="120" height="80" as="geometry" />
        </mxCell>
        <mxCell id="Z5CCrtA--1OO6FsdELsT-2" value="&lt;font color=&quot;#00cc00&quot;&gt;Administrateur&lt;/font&gt;" style="shape=umlActor;verticalLabelPosition=bottom;verticalAlign=top;html=1;gradientColor=none;" vertex="1" parent="1">
          <mxGeometry x="40" y="210" width="30" height="60" as="geometry" />
        </mxCell>
        <mxCell id="Z5CCrtA--1OO6FsdELsT-5" value="Boulanger" style="shape=umlActor;verticalLabelPosition=bottom;verticalAlign=top;html=1;" vertex="1" parent="1">
          <mxGeometry x="40" y="450" width="30" height="60" as="geometry" />
        </mxCell>
        <mxCell id="Z5CCrtA--1OO6FsdELsT-6" value="Client" style="shape=umlActor;verticalLabelPosition=bottom;verticalAlign=top;html=1;" vertex="1" parent="1">
          <mxGeometry x="40" y="740" width="30" height="60" as="geometry" />
        </mxCell>
        <mxCell id="Z5CCrtA--1OO6FsdELsT-7" value="Internaute" style="shape=umlActor;verticalLabelPosition=bottom;verticalAlign=top;html=1;" vertex="1" parent="1">
          <mxGeometry x="40" y="1040" width="30" height="60" as="geometry" />
        </mxCell>
        <mxCell id="Z5CCrtA--1OO6FsdELsT-11" value="" style="endArrow=none;html=1;rounded=0;entryX=0;entryY=1;entryDx=0;entryDy=0;exitX=1;exitY=0.3333333333333333;exitDx=0;exitDy=0;exitPerimeter=0;strokeColor=#00CC00;" edge="1" parent="1" source="Z5CCrtA--1OO6FsdELsT-2" target="Z5CCrtA--1OO6FsdELsT-8">
          <mxGeometry width="50" height="50" relative="1" as="geometry">
            <mxPoint x="70" y="290" as="sourcePoint" />
            <mxPoint x="120" y="240" as="targetPoint" />
          </mxGeometry>
        </mxCell>
        <mxCell id="Z5CCrtA--1OO6FsdELsT-12" value="" style="endArrow=none;html=1;rounded=0;entryX=0;entryY=0.5;entryDx=0;entryDy=0;exitX=1;exitY=0.3333333333333333;exitDx=0;exitDy=0;exitPerimeter=0;strokeColor=#00CC00;" edge="1" parent="1" source="Z5CCrtA--1OO6FsdELsT-2" target="Z5CCrtA--1OO6FsdELsT-9">
          <mxGeometry width="50" height="50" relative="1" as="geometry">
            <mxPoint x="80" y="180" as="sourcePoint" />
            <mxPoint x="168" y="158" as="targetPoint" />
          </mxGeometry>
        </mxCell>
        <mxCell id="Z5CCrtA--1OO6FsdELsT-13" value="" style="endArrow=none;html=1;rounded=0;entryX=0;entryY=0.5;entryDx=0;entryDy=0;exitX=1;exitY=0.3333333333333333;exitDx=0;exitDy=0;exitPerimeter=0;strokeColor=#00CC00;" edge="1" parent="1" source="Z5CCrtA--1OO6FsdELsT-2" target="Z5CCrtA--1OO6FsdELsT-10">
          <mxGeometry width="50" height="50" relative="1" as="geometry">
            <mxPoint x="80" y="190" as="sourcePoint" />
            <mxPoint x="168" y="158" as="targetPoint" />
          </mxGeometry>
        </mxCell>
        <mxCell id="Z5CCrtA--1OO6FsdELsT-17" value="" style="endArrow=none;html=1;rounded=0;entryX=1;entryY=0.3333333333333333;entryDx=0;entryDy=0;entryPerimeter=0;exitX=0;exitY=0.5;exitDx=0;exitDy=0;" edge="1" parent="1" source="Z5CCrtA--1OO6FsdELsT-14" target="Z5CCrtA--1OO6FsdELsT-5">
          <mxGeometry width="50" height="50" relative="1" as="geometry">
            <mxPoint x="130" y="530" as="sourcePoint" />
            <mxPoint x="168" y="452" as="targetPoint" />
          </mxGeometry>
        </mxCell>
        <mxCell id="Z5CCrtA--1OO6FsdELsT-18" value="" style="endArrow=none;html=1;rounded=0;exitX=0;exitY=0;exitDx=0;exitDy=0;entryX=1;entryY=0.3333333333333333;entryDx=0;entryDy=0;entryPerimeter=0;" edge="1" parent="1" source="Z5CCrtA--1OO6FsdELsT-15" target="Z5CCrtA--1OO6FsdELsT-5">
          <mxGeometry width="50" height="50" relative="1" as="geometry">
            <mxPoint x="168" y="598" as="sourcePoint" />
            <mxPoint x="70" y="550" as="targetPoint" />
          </mxGeometry>
        </mxCell>
        <mxCell id="Z5CCrtA--1OO6FsdELsT-21" value="" style="endArrow=none;html=1;rounded=0;exitX=0.5;exitY=1;exitDx=0;exitDy=0;entryX=1;entryY=0.3333333333333333;entryDx=0;entryDy=0;entryPerimeter=0;strokeColor=#ff0000;" edge="1" parent="1" source="Z5CCrtA--1OO6FsdELsT-8" target="Z5CCrtA--1OO6FsdELsT-5">
          <mxGeometry width="50" height="50" relative="1" as="geometry">
            <mxPoint x="190" y="210" as="sourcePoint" />
            <mxPoint x="70" y="410" as="targetPoint" />
          </mxGeometry>
        </mxCell>
        <mxCell id="Z5CCrtA--1OO6FsdELsT-28" value="&lt;font color=&quot;#ff0000&quot; style=&quot;font-size: 20px;&quot;&gt;X&lt;/font&gt;" style="edgeLabel;html=1;align=center;verticalAlign=middle;resizable=0;points=[];" vertex="1" connectable="0" parent="Z5CCrtA--1OO6FsdELsT-21">
          <mxGeometry x="-0.1436" y="2" relative="1" as="geometry">
            <mxPoint as="offset" />
          </mxGeometry>
        </mxCell>
        <mxCell id="Z5CCrtA--1OO6FsdELsT-22" value="" style="endArrow=none;html=1;rounded=0;exitX=0.5;exitY=1;exitDx=0;exitDy=0;entryX=1;entryY=0.3333333333333333;entryDx=0;entryDy=0;entryPerimeter=0;strokeColor=#FF0000;" edge="1" parent="1" source="Z5CCrtA--1OO6FsdELsT-9" target="Z5CCrtA--1OO6FsdELsT-5">
          <mxGeometry width="50" height="50" relative="1" as="geometry">
            <mxPoint x="158" y="168" as="sourcePoint" />
            <mxPoint x="60" y="410" as="targetPoint" />
          </mxGeometry>
        </mxCell>
        <mxCell id="Z5CCrtA--1OO6FsdELsT-27" value="&lt;font color=&quot;#ff0000&quot; style=&quot;font-size: 20px;&quot;&gt;X&lt;/font&gt;" style="edgeLabel;html=1;align=center;verticalAlign=middle;resizable=0;points=[];" vertex="1" connectable="0" parent="Z5CCrtA--1OO6FsdELsT-22">
          <mxGeometry x="-0.2025" y="-2" relative="1" as="geometry">
            <mxPoint as="offset" />
          </mxGeometry>
        </mxCell>
        <mxCell id="Z5CCrtA--1OO6FsdELsT-23" value="" style="endArrow=none;html=1;rounded=0;exitX=0;exitY=1;exitDx=0;exitDy=0;entryX=1;entryY=0.3333333333333333;entryDx=0;entryDy=0;entryPerimeter=0;strokeColor=#FF0000;" edge="1" parent="1" source="Z5CCrtA--1OO6FsdELsT-10" target="Z5CCrtA--1OO6FsdELsT-5">
          <mxGeometry width="50" height="50" relative="1" as="geometry">
            <mxPoint x="283" y="208" as="sourcePoint" />
            <mxPoint x="50" y="410" as="targetPoint" />
          </mxGeometry>
        </mxCell>
        <mxCell id="Z5CCrtA--1OO6FsdELsT-26" value="&lt;font color=&quot;#ff0000&quot; style=&quot;font-size: 20px;&quot;&gt;X&lt;/font&gt;" style="edgeLabel;html=1;align=center;verticalAlign=middle;resizable=0;points=[];" vertex="1" connectable="0" parent="Z5CCrtA--1OO6FsdELsT-23">
          <mxGeometry x="-0.2841" y="2" relative="1" as="geometry">
            <mxPoint as="offset" />
          </mxGeometry>
        </mxCell>
        <mxCell id="Z5CCrtA--1OO6FsdELsT-33" value="" style="endArrow=none;html=1;rounded=0;entryX=0;entryY=1;entryDx=0;entryDy=0;exitX=1;exitY=0.3333333333333333;exitDx=0;exitDy=0;exitPerimeter=0;fontColor=#000000;strokeColor=#ff0000;" edge="1" parent="1" source="Z5CCrtA--1OO6FsdELsT-6" target="Z5CCrtA--1OO6FsdELsT-31">
          <mxGeometry width="50" height="50" relative="1" as="geometry">
            <mxPoint y="670" as="sourcePoint" />
            <mxPoint x="50" y="620" as="targetPoint" />
          </mxGeometry>
        </mxCell>
        <mxCell id="Z5CCrtA--1OO6FsdELsT-38" value="&lt;font color=&quot;#ff0000&quot; style=&quot;font-size: 20px;&quot;&gt;X&lt;/font&gt;" style="edgeLabel;html=1;align=center;verticalAlign=middle;resizable=0;points=[];" vertex="1" connectable="0" parent="Z5CCrtA--1OO6FsdELsT-33">
          <mxGeometry x="0.2048" y="-3" relative="1" as="geometry">
            <mxPoint as="offset" />
          </mxGeometry>
        </mxCell>
        <mxCell id="Z5CCrtA--1OO6FsdELsT-34" value="" style="endArrow=none;html=1;rounded=0;entryX=0;entryY=0.5;entryDx=0;entryDy=0;exitX=1;exitY=0.3333333333333333;exitDx=0;exitDy=0;exitPerimeter=0;" edge="1" parent="1" source="Z5CCrtA--1OO6FsdELsT-6" target="Z5CCrtA--1OO6FsdELsT-16">
          <mxGeometry width="50" height="50" relative="1" as="geometry">
            <mxPoint x="80" y="770" as="sourcePoint" />
            <mxPoint x="158" y="673" as="targetPoint" />
          </mxGeometry>
        </mxCell>
        <mxCell id="Z5CCrtA--1OO6FsdELsT-35" value="" style="endArrow=none;html=1;rounded=0;entryX=0;entryY=0.5;entryDx=0;entryDy=0;exitX=1;exitY=0.3333333333333333;exitDx=0;exitDy=0;exitPerimeter=0;" edge="1" parent="1" source="Z5CCrtA--1OO6FsdELsT-6" target="Z5CCrtA--1OO6FsdELsT-29">
          <mxGeometry width="50" height="50" relative="1" as="geometry">
            <mxPoint x="80" y="770" as="sourcePoint" />
            <mxPoint x="230" y="710" as="targetPoint" />
          </mxGeometry>
        </mxCell>
        <mxCell id="Z5CCrtA--1OO6FsdELsT-36" value="" style="endArrow=none;html=1;rounded=0;entryX=0;entryY=0;entryDx=0;entryDy=0;exitX=1;exitY=0.3333333333333333;exitDx=0;exitDy=0;exitPerimeter=0;" edge="1" parent="1" source="Z5CCrtA--1OO6FsdELsT-6" target="Z5CCrtA--1OO6FsdELsT-30">
          <mxGeometry width="50" height="50" relative="1" as="geometry">
            <mxPoint x="80" y="770" as="sourcePoint" />
            <mxPoint x="320" y="780" as="targetPoint" />
          </mxGeometry>
        </mxCell>
        <mxCell id="Z5CCrtA--1OO6FsdELsT-37" value="" style="endArrow=none;html=1;rounded=0;entryX=0;entryY=0;entryDx=0;entryDy=0;exitX=1;exitY=0.3333333333333333;exitDx=0;exitDy=0;exitPerimeter=0;strokeColor=#FF0000;" edge="1" parent="1" source="Z5CCrtA--1OO6FsdELsT-6" target="Z5CCrtA--1OO6FsdELsT-32">
          <mxGeometry width="50" height="50" relative="1" as="geometry">
            <mxPoint x="80" y="770" as="sourcePoint" />
            <mxPoint x="248" y="832" as="targetPoint" />
          </mxGeometry>
        </mxCell>
        <mxCell id="Z5CCrtA--1OO6FsdELsT-39" value="&lt;font style=&quot;font-size: 20px;&quot; color=&quot;#ff0000&quot;&gt;X&lt;/font&gt;" style="edgeLabel;html=1;align=center;verticalAlign=middle;resizable=0;points=[];" vertex="1" connectable="0" parent="Z5CCrtA--1OO6FsdELsT-37">
          <mxGeometry x="0.4091" y="-1" relative="1" as="geometry">
            <mxPoint as="offset" />
          </mxGeometry>
        </mxCell>
        <mxCell id="Z5CCrtA--1OO6FsdELsT-47" value="&amp;lt;&amp;lt;actor&amp;gt;&amp;gt;&lt;br&gt;Ogone" style="rounded=0;whiteSpace=wrap;html=1;" vertex="1" parent="1">
          <mxGeometry x="500" y="920" width="120" height="60" as="geometry" />
        </mxCell>
        <mxCell id="Z5CCrtA--1OO6FsdELsT-48" value="" style="endArrow=none;html=1;rounded=0;entryX=0;entryY=0.5;entryDx=0;entryDy=0;exitX=1;exitY=0.5;exitDx=0;exitDy=0;" edge="1" parent="1" source="Z5CCrtA--1OO6FsdELsT-44" target="Z5CCrtA--1OO6FsdELsT-47">
          <mxGeometry width="50" height="50" relative="1" as="geometry">
            <mxPoint x="80" y="770" as="sourcePoint" />
            <mxPoint x="283" y="832" as="targetPoint" />
          </mxGeometry>
        </mxCell>
        <mxCell id="Z5CCrtA--1OO6FsdELsT-52" value="" style="endArrow=none;html=1;rounded=0;exitX=0;exitY=0;exitDx=0;exitDy=0;entryX=1;entryY=0.3333333333333333;entryDx=0;entryDy=0;entryPerimeter=0;" edge="1" parent="1" source="Z5CCrtA--1OO6FsdELsT-49" target="Z5CCrtA--1OO6FsdELsT-7">
          <mxGeometry width="50" height="50" relative="1" as="geometry">
            <mxPoint x="-10" y="950" as="sourcePoint" />
            <mxPoint x="40" y="900" as="targetPoint" />
          </mxGeometry>
        </mxCell>
        <mxCell id="Z5CCrtA--1OO6FsdELsT-53" value="" style="endArrow=none;html=1;rounded=0;entryX=0;entryY=0.5;entryDx=0;entryDy=0;" edge="1" parent="1" target="Z5CCrtA--1OO6FsdELsT-50">
          <mxGeometry width="50" height="50" relative="1" as="geometry">
            <mxPoint x="70" y="1060" as="sourcePoint" />
            <mxPoint x="20" y="970" as="targetPoint" />
          </mxGeometry>
        </mxCell>
        <mxCell id="Z5CCrtA--1OO6FsdELsT-54" value="" style="endArrow=none;html=1;rounded=0;entryX=1;entryY=0.3333333333333333;entryDx=0;entryDy=0;exitX=0;exitY=0.5;exitDx=0;exitDy=0;entryPerimeter=0;strokeColor=#00CC00;" edge="1" parent="1" source="Z5CCrtA--1OO6FsdELsT-51" target="Z5CCrtA--1OO6FsdELsT-7">
          <mxGeometry width="50" height="50" relative="1" as="geometry">
            <mxPoint x="80" y="1070" as="sourcePoint" />
            <mxPoint x="250" y="1100" as="targetPoint" />
          </mxGeometry>
        </mxCell>
        <mxCell id="Z5CCrtA--1OO6FsdELsT-55" value="" style="endArrow=none;html=1;rounded=0;entryX=0;entryY=0.5;entryDx=0;entryDy=0;exitX=1;exitY=0.3333333333333333;exitDx=0;exitDy=0;strokeColor=#00CC00;exitPerimeter=0;" edge="1" parent="1" source="Z5CCrtA--1OO6FsdELsT-6" target="Z5CCrtA--1OO6FsdELsT-51">
          <mxGeometry width="50" height="50" relative="1" as="geometry">
            <mxPoint x="140" y="1020" as="sourcePoint" />
            <mxPoint x="80" y="1070" as="targetPoint" />
          </mxGeometry>
        </mxCell>
        <mxCell id="Z5CCrtA--1OO6FsdELsT-58" value="Distributeur boulangerie" style="swimlane;whiteSpace=wrap;html=1;startSize=23;" vertex="1" parent="1">
          <mxGeometry x="620" y="50" width="400" height="550" as="geometry">
            <mxRectangle x="620" y="50" width="180" height="30" as="alternateBounds" />
          </mxGeometry>
        </mxCell>
        <mxCell id="Z5CCrtA--1OO6FsdELsT-62" value="Disposer commandes&lt;br&gt;&lt;font color=&quot;#00cc00&quot;&gt;et pains&lt;/font&gt;" style="ellipse;whiteSpace=wrap;html=1;" vertex="1" parent="Z5CCrtA--1OO6FsdELsT-58">
          <mxGeometry x="20" y="30" width="120" height="80" as="geometry" />
        </mxCell>
        <mxCell id="Z5CCrtA--1OO6FsdELsT-63" value="&lt;font color=&quot;#ff0000&quot;&gt;Récolter&lt;br&gt;commandes&lt;/font&gt;" style="ellipse;whiteSpace=wrap;html=1;fillColor=#f8cecc;strokeColor=#b85450;" vertex="1" parent="Z5CCrtA--1OO6FsdELsT-58">
          <mxGeometry x="145" y="89" width="120" height="80" as="geometry" />
        </mxCell>
        <mxCell id="Z5CCrtA--1OO6FsdELsT-64" value="Retirer commande" style="ellipse;whiteSpace=wrap;html=1;" vertex="1" parent="Z5CCrtA--1OO6FsdELsT-58">
          <mxGeometry x="20" y="250" width="120" height="80" as="geometry" />
        </mxCell>
        <mxCell id="Z5CCrtA--1OO6FsdELsT-74" value="Se connecter" style="ellipse;whiteSpace=wrap;html=1;" vertex="1" parent="Z5CCrtA--1OO6FsdELsT-58">
          <mxGeometry x="20" y="460" width="120" height="80" as="geometry" />
        </mxCell>
        <mxCell id="Z5CCrtA--1OO6FsdELsT-75" value="Acheter pain en&lt;br&gt;vente libre" style="ellipse;whiteSpace=wrap;html=1;" vertex="1" parent="Z5CCrtA--1OO6FsdELsT-58">
          <mxGeometry x="20" y="350" width="120" height="80" as="geometry" />
        </mxCell>
        <mxCell id="Z5CCrtA--1OO6FsdELsT-105" value="&lt;font color=&quot;#ff0000&quot;&gt;Placer pain en&lt;br&gt;vente libre&lt;/font&gt;" style="ellipse;whiteSpace=wrap;html=1;fillColor=#f8cecc;strokeColor=#b85450;" vertex="1" parent="Z5CCrtA--1OO6FsdELsT-58">
          <mxGeometry x="20" y="155" width="120" height="80" as="geometry" />
        </mxCell>
        <mxCell id="Z5CCrtA--1OO6FsdELsT-110" value="Retirer commandes&lt;br&gt;et pains périmés" style="ellipse;whiteSpace=wrap;html=1;fillColor=#d5e8d4;strokeColor=#82b366;fontColor=#00CC00;" vertex="1" parent="Z5CCrtA--1OO6FsdELsT-58">
          <mxGeometry x="270" y="30" width="120" height="80" as="geometry" />
        </mxCell>
        <mxCell id="Z5CCrtA--1OO6FsdELsT-111" value="" style="endArrow=open;html=1;rounded=0;exitX=0;exitY=0.5;exitDx=0;exitDy=0;entryX=1;entryY=0.5;entryDx=0;entryDy=0;dashed=1;dashPattern=8 8;endFill=0;strokeColor=#00CC00;" edge="1" parent="Z5CCrtA--1OO6FsdELsT-58" source="Z5CCrtA--1OO6FsdELsT-110" target="Z5CCrtA--1OO6FsdELsT-62">
          <mxGeometry width="50" height="50" relative="1" as="geometry">
            <mxPoint x="100" y="50" as="sourcePoint" />
            <mxPoint x="150" as="targetPoint" />
          </mxGeometry>
        </mxCell>
        <mxCell id="Z5CCrtA--1OO6FsdELsT-112" value="&lt;font color=&quot;#00cc00&quot;&gt;&amp;lt;&amp;lt;extend&amp;gt;&amp;gt;&lt;/font&gt;" style="text;html=1;align=center;verticalAlign=middle;resizable=0;points=[];autosize=1;strokeColor=none;fillColor=none;" vertex="1" parent="Z5CCrtA--1OO6FsdELsT-58">
          <mxGeometry x="160" y="38" width="90" height="30" as="geometry" />
        </mxCell>
        <mxCell id="Z5CCrtA--1OO6FsdELsT-78" value="Boulanger" style="shape=umlActor;verticalLabelPosition=bottom;verticalAlign=top;html=1;" vertex="1" parent="1">
          <mxGeometry x="550" y="160" width="30" height="60" as="geometry" />
        </mxCell>
        <mxCell id="Z5CCrtA--1OO6FsdELsT-79" value="Client" style="shape=umlActor;verticalLabelPosition=bottom;verticalAlign=top;html=1;" vertex="1" parent="1">
          <mxGeometry x="550" y="320" width="30" height="60" as="geometry" />
        </mxCell>
        <mxCell id="Z5CCrtA--1OO6FsdELsT-80" value="&lt;font color=&quot;#ff0000&quot;&gt;&lt;strike&gt;Internaute&lt;/strike&gt;&lt;/font&gt;&lt;br&gt;&lt;font color=&quot;#00cc00&quot;&gt;Passant&lt;/font&gt;" style="shape=umlActor;verticalLabelPosition=bottom;verticalAlign=top;html=1;" vertex="1" parent="1">
          <mxGeometry x="550" y="470" width="30" height="60" as="geometry" />
        </mxCell>
        <mxCell id="Z5CCrtA--1OO6FsdELsT-84" value="" style="endArrow=none;html=1;rounded=0;entryX=1;entryY=0.3333333333333333;entryDx=0;entryDy=0;entryPerimeter=0;exitX=0;exitY=0.5;exitDx=0;exitDy=0;" edge="1" parent="1" source="Z5CCrtA--1OO6FsdELsT-62" target="Z5CCrtA--1OO6FsdELsT-78">
          <mxGeometry width="50" height="50" relative="1" as="geometry">
            <mxPoint x="640" y="240" as="sourcePoint" />
            <mxPoint x="678" y="162" as="targetPoint" />
          </mxGeometry>
        </mxCell>
        <mxCell id="Z5CCrtA--1OO6FsdELsT-85" value="" style="endArrow=none;html=1;rounded=0;exitX=0;exitY=0.5;exitDx=0;exitDy=0;entryX=1;entryY=0.3333333333333333;entryDx=0;entryDy=0;entryPerimeter=0;fillColor=#f8cecc;strokeColor=#FF0000;" edge="1" parent="1" source="Z5CCrtA--1OO6FsdELsT-63" target="Z5CCrtA--1OO6FsdELsT-78">
          <mxGeometry width="50" height="50" relative="1" as="geometry">
            <mxPoint x="678" y="308" as="sourcePoint" />
            <mxPoint x="580" y="260" as="targetPoint" />
          </mxGeometry>
        </mxCell>
        <mxCell id="Z5CCrtA--1OO6FsdELsT-109" value="&lt;font style=&quot;font-size: 20px;&quot; color=&quot;#ff0000&quot;&gt;X&lt;/font&gt;" style="edgeLabel;html=1;align=center;verticalAlign=middle;resizable=0;points=[];" vertex="1" connectable="0" parent="Z5CCrtA--1OO6FsdELsT-85">
          <mxGeometry x="-0.239" y="-1" relative="1" as="geometry">
            <mxPoint as="offset" />
          </mxGeometry>
        </mxCell>
        <mxCell id="Z5CCrtA--1OO6FsdELsT-94" value="" style="endArrow=none;html=1;rounded=0;entryX=0;entryY=0.5;entryDx=0;entryDy=0;exitX=1;exitY=0.3333333333333333;exitDx=0;exitDy=0;exitPerimeter=0;" edge="1" parent="1" source="Z5CCrtA--1OO6FsdELsT-79" target="Z5CCrtA--1OO6FsdELsT-64">
          <mxGeometry width="50" height="50" relative="1" as="geometry">
            <mxPoint x="590" y="440" as="sourcePoint" />
            <mxPoint x="668" y="343" as="targetPoint" />
          </mxGeometry>
        </mxCell>
        <mxCell id="Z5CCrtA--1OO6FsdELsT-99" value="&lt;font color=&quot;#00cc00&quot;&gt;&amp;lt;&amp;lt;actor&amp;gt;&amp;gt;&lt;br&gt;banque&lt;/font&gt;" style="rounded=0;whiteSpace=wrap;html=1;fillColor=#d5e8d4;strokeColor=#82b366;" vertex="1" parent="1">
          <mxGeometry x="1030" y="410" width="120" height="60" as="geometry" />
        </mxCell>
        <mxCell id="Z5CCrtA--1OO6FsdELsT-100" value="" style="endArrow=none;html=1;rounded=0;entryX=0;entryY=0.5;entryDx=0;entryDy=0;exitX=1;exitY=0.5;exitDx=0;exitDy=0;strokeColor=#00CC00;" edge="1" parent="1" source="Z5CCrtA--1OO6FsdELsT-75" target="Z5CCrtA--1OO6FsdELsT-99">
          <mxGeometry width="50" height="50" relative="1" as="geometry">
            <mxPoint x="980" y="380" as="sourcePoint" />
            <mxPoint x="793" y="262" as="targetPoint" />
          </mxGeometry>
        </mxCell>
        <mxCell id="Z5CCrtA--1OO6FsdELsT-101" value="" style="endArrow=none;html=1;rounded=0;exitX=0;exitY=0;exitDx=0;exitDy=0;entryX=1;entryY=0.3333333333333333;entryDx=0;entryDy=0;entryPerimeter=0;" edge="1" parent="1" source="Z5CCrtA--1OO6FsdELsT-74" target="Z5CCrtA--1OO6FsdELsT-80">
          <mxGeometry width="50" height="50" relative="1" as="geometry">
            <mxPoint x="500" y="380" as="sourcePoint" />
            <mxPoint x="550" y="330" as="targetPoint" />
          </mxGeometry>
        </mxCell>
        <mxCell id="Z5CCrtA--1OO6FsdELsT-102" value="" style="endArrow=none;html=1;rounded=0;entryX=0;entryY=1;entryDx=0;entryDy=0;" edge="1" parent="1" target="Z5CCrtA--1OO6FsdELsT-75">
          <mxGeometry width="50" height="50" relative="1" as="geometry">
            <mxPoint x="580" y="490" as="sourcePoint" />
            <mxPoint x="530" y="400" as="targetPoint" />
          </mxGeometry>
        </mxCell>
        <mxCell id="Z5CCrtA--1OO6FsdELsT-106" value="" style="endArrow=none;html=1;rounded=0;entryX=1;entryY=0.3333333333333333;entryDx=0;entryDy=0;entryPerimeter=0;exitX=0;exitY=0.5;exitDx=0;exitDy=0;strokeColor=#FF0000;" edge="1" parent="1" source="Z5CCrtA--1OO6FsdELsT-105" target="Z5CCrtA--1OO6FsdELsT-78">
          <mxGeometry width="50" height="50" relative="1" as="geometry">
            <mxPoint x="650" y="130" as="sourcePoint" />
            <mxPoint x="590" y="190" as="targetPoint" />
          </mxGeometry>
        </mxCell>
        <mxCell id="Z5CCrtA--1OO6FsdELsT-107" value="&lt;font color=&quot;#ff0000&quot; style=&quot;font-size: 20px;&quot;&gt;X&lt;/font&gt;" style="edgeLabel;html=1;align=center;verticalAlign=middle;resizable=0;points=[];" vertex="1" connectable="0" parent="Z5CCrtA--1OO6FsdELsT-106">
          <mxGeometry x="-0.0464" relative="1" as="geometry">
            <mxPoint as="offset" />
          </mxGeometry>
        </mxCell>
        <mxCell id="Z5CCrtA--1OO6FsdELsT-115" value="" style="endArrow=none;html=1;rounded=0;entryX=0;entryY=0;entryDx=0;entryDy=0;exitX=1;exitY=0.3333333333333333;exitDx=0;exitDy=0;exitPerimeter=0;" edge="1" parent="1" source="Z5CCrtA--1OO6FsdELsT-79" target="Z5CCrtA--1OO6FsdELsT-75">
          <mxGeometry width="50" height="50" relative="1" as="geometry">
            <mxPoint x="590" y="350" as="sourcePoint" />
            <mxPoint x="650" y="350" as="targetPoint" />
          </mxGeometry>
        </mxCell>
      </root>
    </mxGraphModel>
  </diagram>
</mxfile>
